<svg xmlns="http://www.w3.org/2000/svg" width="108.136" height="36.491" viewBox="0 0 108.136 36.491">
  <g id="Layer_2" data-name="Layer 2" transform="translate(0 0)">
    <g id="Layer_1" data-name="Layer 1" transform="translate(0 0)">
      <text id="HODIT" transform="translate(30.136 30.491)" font-size="23" font-family="Righteous-Regular, Righteous" letter-spacing="0.1em"><tspan x="0" y="0">HODIT</tspan></text>
      <path id="Path_5" data-name="Path 5" d="M7,32.241H.907A.907.907,0,0,1,0,31.334V.907A.907.907,0,0,1,.907,0h12.18a12.817,12.817,0,0,1,3.47.469A13.065,13.065,0,0,1,19.67,1.792,13.341,13.341,0,0,1,22.311,3.84a13.06,13.06,0,0,1-4.144,21.283,12.779,12.779,0,0,1-5.079,1.029H7.9v5.183A.907.907,0,0,1,7,32.241ZM1.814,30.428H6.089V25.245A.907.907,0,0,1,7,24.338h6.091a10.955,10.955,0,0,0,4.363-.88,11.264,11.264,0,0,0,6.492-13.352A11.51,11.51,0,0,0,22.8,7.412a11.349,11.349,0,0,0-1.768-2.289,11.567,11.567,0,0,0-2.291-1.77,11.278,11.278,0,0,0-2.681-1.138,11.034,11.034,0,0,0-2.975-.4H1.814ZM13.087,20.083H7a.907.907,0,0,1-.907-.907V7A.907.907,0,0,1,7,6.089h6.091a6.79,6.79,0,0,1,2.715.553,7,7,0,0,1,0,12.884,6.79,6.79,0,0,1-2.715.557ZM7.9,18.269h5.184a4.994,4.994,0,0,0,2-.4,5.328,5.328,0,0,0,1.649-1.114A5.272,5.272,0,0,0,17.844,15.1a5.2,5.2,0,0,0,0-4.018A5.253,5.253,0,0,0,16.731,9.42a5.309,5.309,0,0,0-1.649-1.115,4.994,4.994,0,0,0-2-.4H7.9Z" transform="translate(0 0)"/>
    </g>
  </g>
</svg>
