<svg xmlns="http://www.w3.org/2000/svg" width="22.7" height="27.986" viewBox="0 0 22.7 27.986">
  <path id="Path_6" data-name="Path 6" d="M6.073,27.985H.787A.787.787,0,0,1,0,27.2V.787A.787.787,0,0,1,.787,0H11.359a11.125,11.125,0,0,1,3.012.407,11.341,11.341,0,0,1,2.7,1.148,11.58,11.58,0,0,1,2.292,1.778,11.336,11.336,0,0,1-3.6,18.473,11.092,11.092,0,0,1-4.408.893H6.86v4.5a.787.787,0,0,1-.787.787Zm-4.5-1.574H5.286v-4.5a.787.787,0,0,1,.787-.787h5.287a9.509,9.509,0,0,0,3.787-.764A9.777,9.777,0,0,0,20.781,8.772a9.991,9.991,0,0,0-.99-2.338,9.851,9.851,0,0,0-1.534-1.987A10.04,10.04,0,0,0,16.268,2.91a9.789,9.789,0,0,0-2.327-.988,9.577,9.577,0,0,0-2.582-.348H1.574Zm9.785-8.979H6.073a.787.787,0,0,1-.787-.787V6.072a.787.787,0,0,1,.787-.787h5.287a5.893,5.893,0,0,1,2.356.48,6.076,6.076,0,0,1,0,11.183,5.893,5.893,0,0,1-2.356.484Zm-4.5-1.574h4.5a4.335,4.335,0,0,0,1.732-.35,4.624,4.624,0,0,0,1.432-.967,4.576,4.576,0,0,0,.966-1.439,4.513,4.513,0,0,0,0-3.488,4.559,4.559,0,0,0-.966-1.438,4.609,4.609,0,0,0-1.432-.968,4.335,4.335,0,0,0-1.732-.35H6.86Z" transform="translate(0 0)"/>
</svg>
